<?xml version="1.0" encoding="iso-8859-1"?>
<!-- Generator: Adobe Illustrator 19.0.0, SVG Export Plug-In . SVG Version: 6.00 Build 0)  -->
<svg version="1.1" id="Capa_1" xmlns="http://www.w3.org/2000/svg" xmlns:xlink="http://www.w3.org/1999/xlink" x="0px" y="0px"
	 viewBox="0 0 480.01 480.01" style="enable-background:new 0 0 480.01 480.01;" xml:space="preserve">
<path style="fill:#06AAE9;" d="M240.005,8.021l60.304,55.48l83.08-11.168l14.496,78.592l74.12,37.408l-36.848,71.688l36.848,71.688
	l-74.12,37.408l-14.496,78.592l-83.08-11.168l-60.304,55.48l-60.304-55.48l-83.08,11.168l-14.496-78.592l-74.12-37.408
	l36.848-71.688L8.005,168.333l74.12-37.408l14.496-78.592l83.08,11.168L240.005,8.021z"/>
<g>
	<path style="fill:#F2F2F2;" d="M149.495,307.904l158.393-158.393c6.248-6.248,16.379-6.248,22.628,0l0,0
		c6.248,6.248,6.248,16.379,0,22.628L172.123,330.531c-6.248,6.248-16.379,6.248-22.628,0l0,0
		C143.247,324.283,143.247,314.152,149.495,307.904z"/>
	<circle style="fill:#F2F2F2;" cx="184.005" cy="184.021" r="32"/>
	<circle style="fill:#F2F2F2;" cx="296.005" cy="296.021" r="32"/>
</g>
<path d="M302.229,143.853l-158.4,158.4c-9.373,9.373-9.373,24.571,0,33.944s24.571,9.373,33.944,0l158.4-158.4
	c9.373-9.373,9.373-24.571,0-33.944S311.602,134.48,302.229,143.853z M324.853,166.477l-158.4,158.4
	c-3.124,3.123-8.188,3.123-11.312,0c-3.123-3.124-3.123-8.188,0-11.312l158.4-158.4c3.124-3.123,8.188-3.123,11.312,0
	c3.118,3.123,3.118,8.181,0,11.304L324.853,166.477z"/>
<path d="M184.005,224.021c22.091,0,40-17.908,40.001-39.999s-17.908-40-39.999-40.001s-40,17.908-40.001,39.999
	c0,10.611,4.216,20.787,11.719,28.289C163.209,219.834,173.392,224.051,184.005,224.021z M167.037,167.045
	c9.376-9.371,24.573-9.368,33.944,0.008s9.368,24.573-0.008,33.944c-9.5,9.055-24.436,9.055-33.936,0
	c-9.376-9.37-9.38-24.566-0.011-33.941C167.03,167.052,167.033,167.049,167.037,167.045z"/>
<path d="M296.005,256.021c-22.091,0-40,17.908-40.001,39.999s17.908,40,39.999,40.001s40-17.908,40.001-39.999
	c0-10.611-4.216-20.787-11.719-28.289C316.801,260.208,306.618,255.991,296.005,256.021z M312.973,312.997
	c-9.5,9.056-24.436,9.056-33.936,0c-9.374-9.371-9.376-24.567-0.005-33.941c9.371-9.374,24.567-9.376,33.941-0.005
	c9.374,9.371,9.376,24.567,0.005,33.941C312.976,312.994,312.975,312.995,312.973,312.997z"/>
<path d="M479.613,165.853c-0.659-2.025-2.099-3.704-4-4.664l-70.568-35.616l-13.792-74.696c-0.773-4.198-4.706-7.05-8.936-6.48
	l-79.352,10.68L245.421,2.133c-3.062-2.816-7.77-2.816-10.832,0l-57.544,52.944l-79.352-10.68c-4.237-0.596-8.186,2.268-8.936,6.48
	l-13.784,74.696L4.405,161.189c-3.947,1.986-5.536,6.796-3.549,10.743c0.01,0.019,0.019,0.038,0.029,0.057l34.976,68.032l-34.976,68
	c-2.018,3.93-0.468,8.753,3.463,10.771c0.019,0.01,0.038,0.02,0.057,0.029l70.568,35.616l13.784,74.696
	c0.747,4.215,4.698,7.08,8.936,6.48l79.352-10.68l57.544,52.944c3.062,2.816,7.77,2.816,10.832,0l57.544-52.944l79.352,10.68
	c4.23,0.57,8.163-2.282,8.936-6.48l13.784-74.696l70.568-35.616c3.947-1.986,5.536-6.796,3.549-10.743
	c-0.01-0.019-0.019-0.038-0.029-0.057l-34.976-68l34.976-68C480.102,170.112,480.278,167.892,479.613,165.853L479.613,165.853z
	 M428.005,236.365c-1.179,2.295-1.179,5.017,0,7.312l33.168,64.52l-66.92,33.776c-2.232,1.126-3.809,3.23-4.264,5.688l-13.12,71.104
	l-75.52-10.16c-2.36-0.317-4.738,0.434-6.488,2.048l-54.856,50.496l-54.888-50.496c-1.475-1.361-3.409-2.118-5.416-2.12
	c-0.359,0-0.717,0.024-1.072,0.072l-75.52,10.16l-13.12-71.104c-0.455-2.458-2.032-4.562-4.264-5.688l-66.92-33.776l33.2-64.52
	c1.179-2.295,1.179-5.017,0-7.312l-33.2-64.52l66.92-33.776c2.232-1.126,3.809-3.23,4.264-5.688l13.12-71.104l75.52,10.16
	c2.36,0.324,4.741-0.428,6.488-2.048l54.888-50.496l54.888,50.496c1.75,1.614,4.128,2.365,6.488,2.048l75.52-10.16l13.12,71.104
	c0.455,2.458,2.032,4.562,4.264,5.688l66.92,33.776L428.005,236.365z"/>
<g>
</g>
<g>
</g>
<g>
</g>
<g>
</g>
<g>
</g>
<g>
</g>
<g>
</g>
<g>
</g>
<g>
</g>
<g>
</g>
<g>
</g>
<g>
</g>
<g>
</g>
<g>
</g>
<g>
</g>
</svg>
