<?xml version="1.0"?>
<svg xmlns="http://www.w3.org/2000/svg" id="Capa_1" enable-background="new 0 0 512 512" height="512px" viewBox="0 0 512 512" width="512px" ml-update="aware" class=""><g><g><circle cx="256" cy="256" fill="#2864f0" r="256" data-original="#556080" class="" data-old_color="#2864f0" style="fill:#556080"/><path d="m300.313 508.168c120.263-20.988 211.687-125.897 211.687-252.168 0-21.028-2.554-41.457-7.336-61.012l-86.91-86.91-81.347 29.663 29.834 29.834-67.091 77.489-55.635-55.635-38.954 137.134 73.438 73.437-64.285 21.569z" fill="#27488f" data-original="#556080" class="" data-old_color="#27488f" style="fill:#556080"/><path d="m418.093 189.303-.339-81.225-81.222-.338-.125 30 30.345.126-73.099 73.099 21.213 21.214 73.101-73.1.126 30.349z" fill="#fff" data-original="#556080" class="" data-old_color="#fff" style="fill:#556080"/><path d="m418.093 189.303-.339-81.224-113.494 113.494 10.606 10.606 73.101-73.1.126 30.349z" fill="#dce1eb" data-original="#556080" class="" data-old_color="#dce1eb" style="fill:#556080"/><path d="m299.9 391.569h-28.093v-69.761h-30v69.761h-28.093v30h28.093l.001 27.737h30l-.001-27.737h28.093z" fill="#fff" data-original="#556080" class="" data-old_color="#fff" style="fill:#556080"/><path d="m299.9 391.569h-28.093v-69.761h-15.807v127.498h15.808l-.001-27.737h28.093z" fill="#dce1eb" data-original="#556080" class="" data-old_color="#dce1eb" style="fill:#556080"/><path d="m147.283 230.818c0-31.495 25.532-57.026 57.026-57.026 22.885 0 42.61 13.486 51.691 32.939 9.081-19.453 28.806-32.939 51.691-32.939 31.495 0 57.027 25.532 57.027 57.026-.001 70.328-108.718 134.444-108.718 134.444s-108.717-65.209-108.717-134.444z" fill="#ff8fb8" data-original="#E7ECED" class="active-path" data-old_color="#ff8fb8" style="fill:#E7ECED"/><path d="m307.69 173.792c-22.885 0-42.61 13.486-51.69 32.939v158.531c.376.231 0 0 0 0s108.717-64.116 108.717-134.443c0-31.496-25.531-57.027-57.027-57.027z" fill="#ff5f96" data-original="#E7ECED" class="active-path" data-old_color="#ff5f96" style="fill:#E7ECED"/></g></g> </svg>
