<svg height="512pt" viewBox="-18 0 512 512" width="512pt" xmlns="http://www.w3.org/2000/svg"><path d="m10.304688 105.941406v395.941406h227.691406v-491.765624h-227.691406v15.320312" fill="#edf3f2"/><path d="m237.996094 10.117188h227.695312v491.765624h-227.695312zm0 0" fill="#8fd3e0"/><path d="m188.484375 115.457031c0 35.53125-28.800781 64.335938-64.332031 64.335938-35.535156 0-64.335938-28.804688-64.335938-64.335938s28.800782-64.335937 64.335938-64.335937c35.53125 0 64.332031 28.804687 64.332031 64.335937zm0 0" fill="#92e7bc"/><path d="m416.179688 115.457031c0 35.53125-28.804688 64.335938-64.335938 64.335938s-64.335938-28.804688-64.335938-64.335938 28.804688-64.335937 64.335938-64.335937 64.335938 28.804687 64.335938 64.335937zm0 0" fill="#e38061"/><path d="m47.914062 225.328125h55.617188v55.617187h-55.617188zm0 0" fill="#f4d88b"/><g fill="#92e7bc"><path d="m47.914062 316.324219h55.617188v55.617187h-55.617188zm0 0"/><path d="m47.914062 407.316406h55.617188v55.617188h-55.617188zm0 0"/><path d="m280.859375 225.328125h143.851563v53.539063h-143.851563zm0 0"/><path d="m280.859375 361.164062h143.851563v53.535157h-143.851563zm0 0"/></g><path d="m465.574219 0h-455.386719c-5.589844 0-10.1171875 4.53125-10.1171875 10.117188v15.320312c0 5.585938 4.5273435 10.117188 10.1171875 10.117188 5.585938 0 10.113281-4.53125 10.113281-10.117188v-5.207031h207.464844v471.539062h-207.464844v-385.828125c0-5.585937-4.527343-10.117187-10.113281-10.117187-5.589844 0-10.1171875 4.53125-10.1171875 10.117187v395.941406c0 5.585938 4.5273435 10.117188 10.1171875 10.117188h455.386719c5.585937 0 10.117187-4.53125 10.117187-10.117188v-491.765624c0-5.585938-4.53125-10.117188-10.117187-10.117188zm-10.117188 491.769531h-207.460937v-471.539062h207.460937zm0 0"/><path d="m124.03125 41.007812c-41.050781 0-74.449219 33.398438-74.449219 74.449219 0 41.054688 33.398438 74.453125 74.449219 74.453125 41.054688 0 74.453125-33.398437 74.453125-74.453125 0-41.050781-33.398437-74.449219-74.453125-74.449219zm0 128.667969c-29.894531 0-54.21875-24.320312-54.21875-54.21875 0-29.898437 24.324219-54.21875 54.21875-54.21875 29.898438 0 54.222656 24.320313 54.222656 54.21875 0 29.898438-24.324218 54.21875-54.222656 54.21875zm0 0"/><path d="m137.5 98.210938-18.050781 18.050781-8.882813-8.882813c-3.953125-3.949218-10.355468-3.949218-14.308594 0-3.949218 3.949219-3.949218 10.355469 0 14.304688l16.039063 16.039062c1.976563 1.972656 4.566406 2.960938 7.152344 2.960938 2.589843 0 5.179687-.988282 7.15625-2.960938l25.199219-25.203125c3.949218-3.949219 3.949218-10.355469 0-14.308593-3.949219-3.949219-10.355469-3.949219-14.304688 0zm0 0"/><path d="m351.726562 189.90625c41.054688 0 74.449219-33.398438 74.449219-74.449219s-33.398437-74.453125-74.449219-74.453125c-41.050781 0-74.449218 33.402344-74.449218 74.453125s33.398437 74.449219 74.449218 74.449219zm0-128.667969c29.898438 0 54.21875 24.324219 54.21875 54.21875 0 29.898438-24.320312 54.21875-54.21875 54.21875-29.894531 0-54.21875-24.320312-54.21875-54.21875 0-29.894531 24.324219-54.21875 54.21875-54.21875zm0 0"/><path d="m327.472656 139.714844c1.972656 1.972656 4.5625 2.960937 7.152344 2.960937 2.585938 0 5.175781-.988281 7.152344-2.960937l9.949218-9.953125 9.953126 9.953125c1.972656 1.972656 4.5625 2.960937 7.152343 2.960937 2.585938 0 5.175781-.988281 7.152344-2.960937 3.949219-3.949219 3.949219-10.355469 0-14.308594l-9.953125-9.949219 9.953125-9.949219c3.949219-3.953124 3.949219-10.355468 0-14.308593-3.949219-3.949219-10.355469-3.949219-14.304687 0l-9.953126 9.949219-9.949218-9.949219c-3.949219-3.949219-10.355469-3.949219-14.304688 0-3.953125 3.949219-3.953125 10.355469 0 14.308593l9.949219 9.949219-9.949219 9.949219c-3.953125 3.953125-3.953125 10.359375 0 14.308594zm0 0"/><path d="m37.679688 225.332031v55.613281c0 5.585938 4.527343 10.117188 10.117187 10.117188h55.617187c5.585938 0 10.113282-4.53125 10.113282-10.117188v-55.613281c0-5.585937-4.527344-10.117187-10.113282-10.117187h-55.617187c-5.589844 0-10.117187 4.527344-10.117187 10.117187zm20.230468 10.113281h35.386719v35.386719h-35.386719zm0 0"/><path d="m196.691406 225.050781h-52.039062c-5.585938 0-10.113282 4.527344-10.113282 10.113281 0 5.585938 4.527344 10.117188 10.113282 10.117188h52.039062c5.585938 0 10.113282-4.53125 10.113282-10.117188 0-5.585937-4.527344-10.113281-10.113282-10.113281zm0 0"/><path d="m196.691406 263.101562h-52.039062c-5.585938 0-10.113282 4.53125-10.113282 10.117188s4.527344 10.113281 10.113282 10.113281h52.039062c5.585938 0 10.113282-4.527343 10.113282-10.113281s-4.527344-10.117188-10.113282-10.117188zm0 0"/><path d="m37.679688 371.941406c0 5.585938 4.527343 10.113282 10.117187 10.113282h55.617187c5.585938 0 10.113282-4.527344 10.113282-10.113282v-55.617187c0-5.585938-4.527344-10.117188-10.113282-10.117188h-55.617187c-5.589844 0-10.117187 4.53125-10.117187 10.117188zm20.230468-45.5h35.386719v35.382813h-35.386719zm0 0"/><path d="m196.691406 316.042969h-52.039062c-5.585938 0-10.113282 4.53125-10.113282 10.117187 0 5.585938 4.527344 10.113282 10.113282 10.113282h52.039062c5.585938 0 10.113282-4.527344 10.113282-10.113282 0-5.585937-4.527344-10.117187-10.113282-10.117187zm0 0"/><path d="m196.691406 354.097656h-52.039062c-5.585938 0-10.113282 4.527344-10.113282 10.113282 0 5.585937 4.527344 10.117187 10.113282 10.117187h52.039062c5.585938 0 10.113282-4.53125 10.113282-10.117187 0-5.585938-4.527344-10.113282-10.113282-10.113282zm0 0"/><path d="m37.679688 462.933594c0 5.585937 4.527343 10.117187 10.117187 10.117187h55.617187c5.585938 0 10.113282-4.53125 10.113282-10.117187v-55.613282c0-5.585937-4.527344-10.117187-10.113282-10.117187h-55.617187c-5.589844 0-10.117187 4.53125-10.117187 10.117187zm20.230468-45.5h35.386719v35.386718h-35.386719zm0 0"/><path d="m196.691406 407.035156h-52.039062c-5.585938 0-10.113282 4.53125-10.113282 10.117188 0 5.585937 4.527344 10.117187 10.113282 10.117187h52.039062c5.585938 0 10.113282-4.53125 10.113282-10.117187 0-5.585938-4.527344-10.117188-10.113282-10.117188zm0 0"/><path d="m196.691406 445.089844h-52.039062c-5.585938 0-10.113282 4.53125-10.113282 10.117187 0 5.585938 4.527344 10.117188 10.113282 10.117188h52.039062c5.585938 0 10.113282-4.53125 10.113282-10.117188 0-5.585937-4.527344-10.117187-10.113282-10.117187zm0 0"/><path d="m280.742188 288.984375h143.851562c5.585938 0 10.117188-4.53125 10.117188-10.117187v-53.535157c0-5.585937-4.53125-10.117187-10.117188-10.117187h-143.851562c-5.585938 0-10.113282 4.53125-10.113282 10.117187v53.535157c0 5.585937 4.527344 10.117187 10.113282 10.117187zm10.117187-53.539063h123.617187v33.304688h-123.617187zm0 0"/><path d="m280.742188 329.488281h104.0625c5.585937 0 10.113281-4.53125 10.113281-10.117187 0-5.585938-4.527344-10.113282-10.113281-10.113282h-104.0625c-5.585938 0-10.113282 4.527344-10.113282 10.113282 0 5.585937 4.527344 10.117187 10.113282 10.117187zm0 0"/><path d="m280.742188 424.816406h143.851562c5.585938 0 10.117188-4.53125 10.117188-10.117187v-53.535157c0-5.585937-4.53125-10.117187-10.117188-10.117187h-143.851562c-5.585938 0-10.113282 4.53125-10.113282 10.117187v53.535157c0 5.585937 4.527344 10.117187 10.113282 10.117187zm10.117187-53.535156h123.617187v33.304688h-123.617187zm0 0"/><path d="m280.742188 465.324219h143.851562c5.585938 0 10.117188-4.53125 10.117188-10.117188 0-5.585937-4.53125-10.117187-10.117188-10.117187h-143.851562c-5.585938 0-10.113282 4.53125-10.113282 10.117187 0 5.585938 4.527344 10.117188 10.113282 10.117188zm0 0"/><path d="m433.902344 316.054688c-2.09375-5.179688-7.988282-7.679688-13.167969-5.585938s-7.679687 7.992188-5.585937 13.171875l.136718.335937c1.589844 3.9375 5.378906 6.328126 9.378906 6.328126 1.261719 0 2.546876-.238282 3.789063-.742188 5.179687-2.09375 7.679687-7.992188 5.585937-13.171875zm0 0"/><path d="m.875 70.113281c1.59375 3.9375 5.382812 6.328125 9.382812 6.328125 1.261719 0 2.546876-.238281 3.789063-.742187 5.179687-2.09375 7.679687-7.988281 5.585937-13.171875l-.136718-.335938c-2.09375-5.175781-7.992188-7.679687-13.171875-5.582031-5.179688 2.09375-7.679688 7.988281-5.582031 13.167969zm0 0"/></svg>