<?xml version="1.0"?>
<svg xmlns="http://www.w3.org/2000/svg" height="512px" viewBox="-24 0 384 384" width="512px" ml-update="aware" class=""><g><path d="m240 16v352l-112-64-112 64v-352zm0 0" fill="#4dd0e1" data-original="#4DD0E1"/><path d="m320 160c0 44.183594-35.816406 80-80 80s-80-35.816406-80-80 35.816406-80 80-80 80 35.816406 80 80zm0 0" fill="#ff7043" data-original="#FF7043" class="active-path" data-old_color="#ff7043" style="fill:#64FF43"/><g fill="#012e52"><path d="m7.96875 381.839844c4.933594 2.855468 11.015625 2.871094 15.96875.046875l104.0625-59.453125 104.0625 59.460937c2.457031 1.402344 5.195312 2.105469 7.9375 2.105469 2.777344 0 5.542969-.71875 8.03125-2.160156 4.929688-2.863282 7.96875-8.136719 7.96875-13.839844v-113.449219c45.328125-7.648437 80-47.078125 80-94.550781s-34.671875-86.902344-80-94.550781v-49.449219c0-8.832031-7.167969-16-16-16h-128c-8.832031 0-16 7.167969-16 16s7.167969 16 16 16h112v33.449219c-45.328125 7.648437-80 47.078125-80 94.550781s34.671875 86.902344 80 94.550781v85.875l-88.0625-50.320312c-4.921875-2.816407-10.953125-2.816407-15.875 0l-88.0625 50.328125v-308.433594h16c8.832031 0 16-7.167969 16-16s-7.167969-16-16-16h-32c-8.832031 0-16 7.167969-16 16v352c0 5.703125 3.039062 10.976562 7.96875 13.839844zm168.03125-221.839844c0-35.289062 28.710938-64 64-64s64 28.710938 64 64-28.710938 64-64 64-64-28.710938-64-64zm0 0" data-original="#000000" class="" style="fill:#000000"/><path d="m256 192v-16h16c8.832031 0 16-7.167969 16-16s-7.167969-16-16-16h-16v-16c0-8.832031-7.167969-16-16-16s-16 7.167969-16 16v16h-16c-8.832031 0-16 7.167969-16 16s7.167969 16 16 16h16v16c0 8.832031 7.167969 16 16 16s16-7.167969 16-16zm0 0" data-original="#000000" class="" style="fill:#000000"/></g></g> </svg>
