<svg height="480pt" viewBox="0 0 480 480" width="480pt" xmlns="http://www.w3.org/2000/svg"><path d="m104 232c-35.347656 0-64-28.652344-64-64v-96h160v-32h-192v128c0 53.019531 42.980469 96 96 96h96v-32zm0 0" fill="#ffa754"/><path d="m376 232c35.347656 0 64-28.652344 64-64v-96h-160v-32h192v128c0 53.019531-42.980469 96-96 96h-96v-32zm0 0" fill="#ffa754"/><path d="m96 8h288v160c0 79.527344-64.472656 144-144 144s-144-64.472656-144-144zm0 0" fill="#fdd020"/><path d="m144 440h192c17.671875 0 32 14.328125 32 32h-256c0-17.671875 14.328125-32 32-32zm0 0" fill="#fdd020"/><path d="m216 344h48v96h-48zm0 0" fill="#ffa754"/><path d="m208 312h64c8.835938 0 16 7.164062 16 16s-7.164062 16-16 16h-64c-8.835938 0-16-7.164062-16-16s7.164062-16 16-16zm0 0" fill="#cf7642"/><path d="m279.550781 200-39.550781-21.863281-39.550781 21.863281 7.550781-46.3125-32-32.800781 44.222656-6.75 19.777344-42.136719 19.777344 42.136719 44.222656 6.75-32 32.800781zm0 0" fill="#dc2027"/><path d="m472 32h-80v-24c0-4.417969-3.582031-8-8-8h-288c-4.417969 0-8 3.582031-8 8v24h-80c-4.417969 0-8 3.582031-8 8v128c.0664062 57.410156 46.589844 103.933594 104 104h24v-1.601562c17.101562 18.730468 38.617188 32.890624 62.585938 41.195312-6.597657 6.941406-8.417969 17.152344-4.628907 25.949219 3.792969 8.796875 12.464844 14.484375 22.042969 14.457031v80h-64c-22.082031.027344-39.972656 17.917969-40 40 0 4.417969 3.582031 8 8 8h256c4.417969 0 8-3.582031 8-8-.027344-22.082031-17.917969-39.972656-40-40h-64v-80c9.578125.027344 18.25-5.660156 22.042969-14.457031 3.789062-8.796875 1.96875-19.007813-4.628907-25.949219 23.28125-8.058594 44.257813-21.644531 61.128907-39.59375h25.457031c57.410156-.066406 103.933594-46.589844 104-104v-128c0-4.417969-3.582031-8-8-8zm-80 48h40v88c-.042969 28.867188-21.992188 52.984375-50.726562 55.734375 7.066406-17.730469 10.707031-36.644531 10.726562-55.734375zm-293.273438 143.734375c-28.734374-2.75-50.683593-26.867187-50.726562-55.734375v-88h40v88c.019531 19.089844 3.660156 38.003906 10.726562 55.734375zm5.273438 32.265625c-48.578125-.058594-87.941406-39.421875-88-88v-120h72v16h-48c-4.417969 0-8 3.582031-8 8v96c.046875 39.746094 32.253906 71.953125 72 72h2.183594c3.03125 5.539062 6.410156 10.882812 10.113281 16zm254.632812 208h-237.265624c3.402343-9.582031 12.464843-15.988281 22.632812-16h192c10.167969.011719 19.230469 6.417969 22.632812 16zm-102.632812-32h-32v-80h32zm16-112c4.417969 0 8 3.582031 8 8s-3.582031 8-8 8h-64c-4.417969 0-8-3.582031-8-8s3.582031-8 8-8zm-32-16c-75.074219-.082031-135.917969-60.925781-136-136v-152h272v152c-.082031 75.074219-60.925781 135.917969-136 136zm224-136c-.058594 48.578125-39.421875 87.941406-88 88h-12.296875c3.703125-5.117188 7.082031-10.460938 10.113281-16h2.183594c39.746094-.046875 71.953125-32.253906 72-72v-96c0-4.417969-3.582031-8-8-8h-48v-16h72zm0 0"/><path d="m305.207031 112.984375-40-6.113281-17.96875-38.269532c-1.316406-2.808593-4.136719-4.597656-7.238281-4.597656s-5.921875 1.789063-7.238281 4.597656l-17.96875 38.269532-40 6.113281c-2.964844.453125-5.429688 2.523437-6.382813 5.367187-.949218 2.84375-.234375 5.980469 1.863282 8.128907l29.183593 29.902343-6.90625 42.328126c-.492187 3.023437.785157 6.066406 3.289063 7.828124 2.507812 1.765626 5.800781 1.945313 8.480468.460938l35.679688-19.71875 35.679688 19.71875c2.679687 1.484375 5.972656 1.304688 8.480468-.460938 2.503906-1.761718 3.78125-4.804687 3.289063-7.828124l-6.90625-42.328126 29.183593-29.902343c2.097657-2.148438 2.8125-5.285157 1.863282-8.128907-.953125-2.84375-3.417969-4.914062-6.382813-5.367187zm-38.933593 35.121094c-1.773438 1.816406-2.578126 4.367187-2.167969 6.871093l4.902343 30.046876-25.136718-13.886719c-2.410156-1.332031-5.332032-1.332031-7.742188 0l-25.136718 13.886719 4.902343-30.046876c.410157-2.503906-.394531-5.054687-2.167969-6.871093l-21.125-21.65625 28.796876-4.402344c2.640624-.402344 4.902343-2.09375 6.035156-4.511719l12.566406-26.703125 12.535156 26.703125c1.132813 2.417969 3.394532 4.109375 6.03125 4.511719l28.800782 4.402344zm0 0"/></svg>