<?xml version="1.0"?>
<svg xmlns="http://www.w3.org/2000/svg" id="Capa_1" enable-background="new 0 0 510 510" height="512px" viewBox="0 0 510 510" width="512px" ml-update="aware" class=""><g><path d="m504.51 208.184-69.03-56.95v-60.44c0-8.29-6.72-15-15-15h-76.44l-79.49-65.58c-5.55-4.57-13.55-4.57-19.1 0l-79.49 65.58h-76.44c-8.28 0-15 6.71-15 15v60.44l-69.03 56.95-.04.04c-3.541 2.892-5.45 7.32-5.45 11.59v268.4c0 8.226 6.651 15 15 15h480c8.625 0 15-7.037 15-15v-268.4c0-5.429-2.586-8.761-5.49-11.63zm-24.51 245.26-128.36-121.13c78.348-51.666 57.549-37.962 128.36-84.65zm-439.8-234.99c20.598-16.991 13.098-10.802 34.32-28.32v50.95c-18.856-12.446-26.857-17.704-34.32-22.63zm64.32-112.66h300.96v155.08c-134.61 88.781-48.92 32.253-150.48 99.24-72.281-47.675-39.621-26.123-150.48-99.24 0-18.402 0-136.938 0-155.08zm150.48-64.56 41.89 34.56h-83.78zm214.8 177.22c-7.222 4.767-16.073 10.586-34.32 22.63 0-6.126 0-44.818 0-50.95 21.254 17.544 13.709 11.318 34.32 28.32zm-439.8 29.21s125.192 82.561 128.36 84.65l-128.36 121.13zm154.08 101.62 62.66 41.32c5.012 3.294 11.51 3.293 16.52 0l62.66-41.32 131.33 123.93h-404.5z" data-original="#000000" class="active-path" data-old_color="#000000" fill="#FFFFFF"/><path d="m226.32 200.804c8.301 0 15-6.741 15-15 0-7.765 6.389-13.883 14.02-13.68 7.18.17 13.17 6.15 13.34 13.34.215 9.119-5.984 10.346-13.57 19.33-9.408 11.077-15.11 25.209-15.11 41.29 0 8.246 6.685 15 15 15 7.817 0 15-6.085 15-15.47 0-9.329 3.901-18.489 12.66-26.01 10.458-8.562 16.336-21.276 16.01-34.85-.55-23.35-19.27-42.07-42.63-42.62-24.407-.617-44.72 19.007-44.72 43.67 0 8.28 6.72 15 15 15z" data-original="#000000" class="active-path" data-old_color="#000000" fill="#FFFFFF"/><path d="m255 268.434c-8.28 0-15 6.71-15 15v8.78c0 8.302 6.734 15 15 15 8.269 0 15-6.7 15-15v-8.78c0-8.29-6.72-15-15-15z" data-original="#000000" class="active-path" data-old_color="#000000" fill="#FFFFFF"/></g> </svg>
