<svg height="480pt" viewBox="0 0 480 480" width="480pt" xmlns="http://www.w3.org/2000/svg"><path d="m104 232c-35.347656 0-64-28.652344-64-64v-96h160v-32h-192v128c0 53.019531 42.980469 96 96 96h96v-32zm0 0" fill="#bfb2b7"/><path d="m376 232c35.347656 0 64-28.652344 64-64v-96h-160v-32h192v128c0 53.019531-42.980469 96-96 96h-96v-32zm0 0" fill="#bfb2b7"/><path d="m144 440h192c17.671875 0 32 14.328125 32 32h-256c0-17.671875 14.328125-32 32-32zm0 0" fill="#d0dad9"/><path d="m216 344h48v96h-48zm0 0" fill="#bfb2b7"/><path d="m208 312h64c8.835938 0 16 7.164062 16 16s-7.164062 16-16 16h-64c-8.835938 0-16-7.164062-16-16s7.164062-16 16-16zm0 0" fill="#8f8589"/><path d="m96 8h288v160c0 79.527344-64.472656 144-144 144s-144-64.472656-144-144zm0 0" fill="#d0dad9"/><path d="m272 184h-8v-80h8c4.417969 0 8-3.582031 8-8s-3.582031-8-8-8h-64c-4.417969 0-8 3.582031-8 8s3.582031 8 8 8h8v80h-8c-4.417969 0-8 3.582031-8 8s3.582031 8 8 8h64c4.417969 0 8-3.582031 8-8s-3.582031-8-8-8zm-40-80h16v80h-16zm0 0" fill="#bfb2b7"/><path d="m472 32h-80v-24c0-4.417969-3.582031-8-8-8h-288c-4.417969 0-8 3.582031-8 8v24h-80c-4.417969 0-8 3.582031-8 8v128c.0664062 57.410156 46.589844 103.933594 104 104h25.457031c16.871094 17.949219 37.847657 31.535156 61.128907 39.59375-6.597657 6.941406-8.417969 17.152344-4.628907 25.949219 3.792969 8.796875 12.464844 14.484375 22.042969 14.457031v80h-64c-22.082031.027344-39.972656 17.917969-40 40 0 4.417969 3.582031 8 8 8h256c4.417969 0 8-3.582031 8-8-.027344-22.082031-17.917969-39.972656-40-40h-64v-80c9.578125.027344 18.25-5.660156 22.042969-14.457031 3.789062-8.796875 1.96875-19.007813-4.628907-25.949219 23.28125-8.058594 44.257813-21.644531 61.128907-39.59375h25.457031c57.410156-.066406 103.933594-46.589844 104-104v-128c0-4.417969-3.582031-8-8-8zm-80 48h40v88c-.042969 28.867188-21.992188 52.984375-50.726562 55.734375 7.066406-17.730469 10.707031-36.644531 10.726562-55.734375zm-293.273438 143.734375c-28.734374-2.75-50.683593-26.867187-50.726562-55.734375v-88h40v88c.019531 19.089844 3.660156 38.003906 10.726562 55.734375zm5.273438 32.265625c-48.578125-.058594-87.941406-39.421875-88-88v-120h72v16h-48c-4.417969 0-8 3.582031-8 8v96c.042969 39.746094 32.253906 71.957031 72 72h2.183594c3.03125 5.539062 6.410156 10.882812 10.113281 16zm254.632812 208h-237.265624c3.402343-9.582031 12.464843-15.988281 22.632812-16h192c10.167969.011719 19.230469 6.417969 22.632812 16zm-102.632812-32h-32v-80h32zm16-112c4.417969 0 8 3.582031 8 8s-3.582031 8-8 8h-64c-4.417969 0-8-3.582031-8-8s3.582031-8 8-8zm-32-16c-75.074219-.082031-135.917969-60.925781-136-136v-152h272v152c-.082031 75.074219-60.925781 135.917969-136 136zm224-136c-.058594 48.578125-39.421875 87.941406-88 88h-12.296875c3.703125-5.117188 7.082031-10.460938 10.113281-16h2.183594c39.746094-.042969 71.957031-32.253906 72-72v-96c0-4.417969-3.582031-8-8-8h-48v-16h72zm0 0"/><path d="m272 104c4.417969 0 8-3.582031 8-8s-3.582031-8-8-8h-64c-4.417969 0-8 3.582031-8 8s3.582031 8 8 8h8v80h-8c-4.417969 0-8 3.582031-8 8s3.582031 8 8 8h64c4.417969 0 8-3.582031 8-8s-3.582031-8-8-8h-8v-80zm-24 80h-16v-80h16zm0 0"/></svg>