<?xml version="1.0" encoding="iso-8859-1"?>
<!-- Generator: Adobe Illustrator 19.0.0, SVG Export Plug-In . SVG Version: 6.00 Build 0)  -->
<svg version="1.1" id="Capa_1" xmlns="http://www.w3.org/2000/svg" xmlns:xlink="http://www.w3.org/1999/xlink" x="0px" y="0px"
	 viewBox="0 0 464 464" style="enable-background:new 0 0 464 464;" xml:space="preserve">
<path style="fill:#06AAE9;" d="M232,0l60.304,55.48l83.08-11.168l14.496,78.592L464,160.312L427.152,232L464,303.688l-74.12,37.408
	l-14.496,78.592l-83.08-11.168L232,464l-60.304-55.48l-83.08,11.168L74.12,341.096L0,303.688L36.848,232L0,160.312l74.12-37.408
	l14.496-78.592l83.08,11.168L232,0z"/>
<g>
	<path style="fill:#F2F2F2;" d="M141.49,299.883L299.883,141.49c6.248-6.248,16.379-6.248,22.628,0l0,0
		c6.248,6.248,6.248,16.379,0,22.628L164.118,322.51c-6.248,6.248-16.379,6.248-22.628,0l0,0
		C135.242,316.262,135.242,306.131,141.49,299.883z"/>
	<circle style="fill:#F2F2F2;" cx="176" cy="176" r="32"/>
	<circle style="fill:#F2F2F2;" cx="288" cy="288" r="32"/>
</g>
<g>
</g>
<g>
</g>
<g>
</g>
<g>
</g>
<g>
</g>
<g>
</g>
<g>
</g>
<g>
</g>
<g>
</g>
<g>
</g>
<g>
</g>
<g>
</g>
<g>
</g>
<g>
</g>
<g>
</g>
</svg>
