<?xml version="1.0"?>
<svg xmlns="http://www.w3.org/2000/svg" xmlns:xlink="http://www.w3.org/1999/xlink" version="1.1" id="Capa_1" x="0px" y="0px" viewBox="0 0 480.01 480.01" style="enable-background:new 0 0 480.01 480.01;" xml:space="preserve" ml-update="aware" width="512px" height="512px" class=""><g><g>
	<g>
		<path d="M336.173,143.853c-9.373-9.373-24.571-9.373-33.944,0l-158.4,158.4c-9.373,9.373-9.373,24.571,0,33.944    c9.373,9.373,24.571,9.373,33.944,0l158.4-158.4C345.546,168.424,345.546,153.226,336.173,143.853z M324.853,166.469v0.008    l-158.4,158.4c-3.124,3.123-8.188,3.123-11.312,0c-3.123-3.124-3.123-8.188,0-11.312l158.4-158.4    c3.124-3.123,8.188-3.123,11.312,0C327.971,158.288,327.971,163.346,324.853,166.469z" data-original="#000000" class="active-path" data-old_color="#000000" fill="#FFFFFF"/>
	</g>
</g><g>
	<g>
		<path d="M184.006,144.021c-22.091,0-40,17.908-40.001,39.999c0,10.611,4.216,20.787,11.719,28.289    c7.484,7.525,17.667,11.742,28.28,11.712c22.091,0,40-17.908,40.001-39.999S206.098,144.021,184.006,144.021z M200.973,200.997    c-9.5,9.055-24.436,9.055-33.936,0c-9.376-9.37-9.38-24.566-0.011-33.941c0.004-0.004,0.007-0.007,0.011-0.011    c9.376-9.371,24.573-9.368,33.944,0.008C210.352,176.429,210.349,191.626,200.973,200.997z" data-original="#000000" class="active-path" data-old_color="#000000" fill="#FFFFFF"/>
	</g>
</g><g>
	<g>
		<path d="M324.285,267.733c-7.484-7.525-17.667-11.742-28.28-11.712c-22.091,0-40,17.908-40.001,39.999    c0,22.091,17.908,40,39.999,40.001c22.091,0,40-17.908,40.001-39.999C336.005,285.411,331.789,275.235,324.285,267.733z     M312.978,312.992c-0.002,0.002-0.003,0.003-0.005,0.005c-9.5,9.055-24.436,9.055-33.936,0    c-9.374-9.371-9.376-24.567-0.005-33.941c9.371-9.374,24.567-9.376,33.941-0.005C322.347,288.422,322.349,303.618,312.978,312.992    z" data-original="#000000" class="active-path" data-old_color="#000000" fill="#FFFFFF"/>
	</g>
</g><g>
	<g>
		<path d="M479.125,308.021l-34.976-68l34.976-68c0.977-1.909,1.153-4.129,0.488-6.168c-0.659-2.025-2.099-3.704-4-4.664    l-70.568-35.616l-13.792-74.696c-0.773-4.198-4.706-7.05-8.936-6.48l-79.352,10.68L245.421,2.133    c-3.062-2.816-7.771-2.816-10.832,0l-57.544,52.944l-79.352-10.68c-4.237-0.596-8.186,2.268-8.936,6.48l-13.784,74.696    L4.405,161.189c-3.947,1.986-5.536,6.796-3.549,10.743c0.01,0.019,0.019,0.038,0.029,0.057l34.976,68.032l-34.976,68    c-2.018,3.93-0.468,8.753,3.463,10.771c0.019,0.01,0.038,0.02,0.057,0.029l70.568,35.616l13.784,74.696    c0.747,4.215,4.698,7.08,8.936,6.48l79.352-10.68l57.544,52.944c3.062,2.816,7.771,2.816,10.832,0l57.544-52.944l79.352,10.68    c4.23,0.57,8.163-2.282,8.936-6.48l13.784-74.696l70.568-35.616c3.947-1.986,5.536-6.796,3.549-10.743    C479.145,308.059,479.135,308.04,479.125,308.021z M394.253,341.973c-2.232,1.126-3.809,3.23-4.264,5.688l-13.12,71.104    l-75.52-10.16c-2.36-0.317-4.738,0.434-6.488,2.048l-54.856,50.496l-54.888-50.496c-1.475-1.361-3.409-2.118-5.416-2.12    c-0.359,0-0.717,0.024-1.072,0.072l-75.52,10.16l-13.12-71.104c-0.455-2.458-2.032-4.562-4.264-5.688l-66.92-33.776l33.2-64.52    c1.179-2.295,1.179-5.017,0-7.312l-33.2-64.52l66.92-33.776c2.232-1.126,3.809-3.23,4.264-5.688l13.12-71.104l75.52,10.16    c2.36,0.324,4.741-0.428,6.488-2.048l54.888-50.496l54.888,50.496c1.75,1.614,4.128,2.365,6.488,2.048l75.52-10.16l13.12,71.104    c0.455,2.458,2.032,4.562,4.264,5.688l66.92,33.776l-33.2,64.52c-1.179,2.295-1.179,5.017,0,7.312l33.168,64.52L394.253,341.973z" data-original="#000000" class="active-path" data-old_color="#000000" fill="#FFFFFF"/>
	</g>
</g></g> </svg>
