<svg height="511pt" viewBox="1 0 511.99975 511" width="511pt" xmlns="http://www.w3.org/2000/svg"><path d="m331.949219 45.492188v451.933593c0 8.398438-6.597657 15-14.996094 15h-301.957031c-8.398438 0-14.996094-6.601562-14.996094-15v-451.933593c0-8.398438 6.597656-14.996094 14.996094-14.996094h301.957031c8.398437 0 14.996094 6.597656 14.996094 14.996094zm0 0" fill="#444"/><path d="m331.949219 45.492188v451.933593c0 8.398438-6.597657 15-14.996094 15h-150.976563v-481.929687h150.976563c8.398437 0 14.996094 6.597656 14.996094 14.996094zm0 0" fill="#292929"/><path d="m29.996094 60.492188h271.960937v421.9375h-271.960937zm0 0" fill="#deecf1"/><path d="m165.976562 60.492188h135.980469v421.9375h-135.980469zm0 0" fill="#c6e2e7"/><path d="m226.964844.5h-120.980469c-8.398437 0-14.996094 6.597656-14.996094 14.996094v29.996094c0 8.402343 6.597657 15 14.996094 15h120.980469c8.402344 0 15-6.597657 15-15v-29.996094c0-8.398438-6.597656-14.996094-15-14.996094zm0 0" fill="#fdbf00"/><path d="m146.582031 246.855469c-5.855469-5.855469-15.347656-5.855469-21.207031 0l-19.390625 19.394531-19.390625-19.394531c-5.859375-5.855469-15.351562-5.855469-21.210938 0-5.855468 5.859375-5.855468 15.351562 0 21.210937l19.394532 19.390625-19.394532 19.390625c-5.855468 5.859375-5.855468 15.351563 0 21.210938 5.859376 5.855468 15.351563 5.859375 21.210938 0l19.390625-19.394532 19.390625 19.394532c5.859375 5.855468 15.351562 5.859375 21.210938 0 5.855468-5.859375 5.855468-15.351563 0-21.210938l-19.394532-19.390625 19.394532-19.390625c5.855468-5.859375 5.855468-15.351562-.003907-21.210937zm0 0" fill="#ff6c6c"/><path d="m146.582031 366.839844c-5.855469-5.859375-15.347656-5.859375-21.207031 0l-19.390625 19.390625-19.390625-19.390625c-5.859375-5.859375-15.351562-5.859375-21.210938 0-5.855468 5.859375-5.855468 15.347656 0 21.207031l19.394532 19.394531-19.394532 19.390625c-5.855468 5.859375-5.855468 15.347657 0 21.207031 5.859376 5.859376 15.351563 5.859376 21.210938 0l19.390625-19.390624 19.390625 19.390624c5.859375 5.859376 15.351562 5.859376 21.210938 0 5.855468-5.859374 5.855468-15.347656 0-21.207031l-19.394532-19.390625 19.394532-19.394531c5.855468-5.859375 5.855468-15.347656-.003907-21.207031zm0 0" fill="#ff6c6c"/><path d="m176.578125 126.875c-5.859375-5.859375-15.347656-5.859375-21.207031 0l-49.386719 49.386719-19.390625-19.390625c-5.859375-5.859375-15.351562-5.859375-21.210938 0-5.855468 5.859375-5.855468 15.347656 0 21.207031l29.996094 29.996094c5.859375 5.859375 15.351563 5.859375 21.207032 0l59.992187-59.992188c7.191406-7.191406 7.191406-14.015625 0-21.207031zm0 0" fill="#25d9f8"/><path d="m402.4375 402.9375c-5.699219 6-15.292969 6-20.992188 0l-41.394531-41.390625c-6-5.699219-6-15.296875 0-20.996094 5.699219-6 15.296875-6 20.996094 0l41.390625 41.390625c6 5.703125 6 15.296875 0 20.996094zm0 0" fill="#c6e2e7"/><path d="m402.4375 402.9375c-5.699219 6-15.292969 6-20.992188 0l-41.394531-41.390625c-6-5.699219-6-15.296875 0-20.996094zm0 0" fill="#8ebac5"/><path d="m498.726562 435.636719-74.988281-74.992188c-5.699219-5.996093-15.300781-5.996093-21.300781 0l-20.992188 21.300781-21.296874 20.992188c-6 6-6 15.601562 0 21.300781l74.988281 74.988281c17.398437 17.699219 46.191406 17.398438 63.589843 0 17.699219-17.398437 17.699219-46.195312 0-63.589843zm0 0" fill="#6e6e6e"/><path d="m498.726562 499.226562c-17.398437 17.398438-46.191406 17.699219-63.589843 0l-74.988281-74.988281c-6-5.699219-6-15.300781 0-21.300781l21.296874-20.996094zm0 0" fill="#444"/><path d="m361.046875 361.546875c-40.796875 41.09375-107.382813 41.09375-148.175781 0-41.097656-40.796875-41.097656-107.382813 0-148.175781 40.792968-41.097656 107.382812-41.097656 148.175781 0 41.09375 40.792968 41.09375 107.378906 0 148.175781zm0 0" fill="#5a5a5a"/><path d="m361.046875 361.546875c-40.796875 41.09375-107.382813 41.09375-148.175781 0-41.097656-40.796875-41.097656-107.382813 0-148.175781zm0 0" fill="#444"/><path d="m340.050781 340.550781c-29.398437 29.09375-76.789062 29.09375-106.183593 0-29.097657-29.398437-29.097657-76.789062 0-106.1875 29.394531-29.09375 76.785156-29.09375 106.183593 0 29.09375 29.398438 29.09375 76.789063 0 106.1875zm0 0" fill="#deecf1"/><path d="m340.050781 340.550781c-29.398437 29.09375-76.789062 29.09375-106.183593 0-29.097657-29.398437-29.097657-76.789062 0-106.1875zm0 0" fill="#c6e2e7"/><path d="m241.964844 15.496094v29.996094c0 8.402343-6.597656 15-15 15h-60.988282v-59.992188h60.988282c8.402344 0 15 6.597656 15 14.996094zm0 0" fill="#ff9f00"/></svg>