<svg height="512" viewBox="0 0 64 64" width="512" xmlns="http://www.w3.org/2000/svg"><rect fill="#00ccb3" height="52" rx="2" width="40" x="15" y="3"/><path d="m51 11v44h-2v-44a2.006 2.006 0 0 0 -2-2h2a2.006 2.006 0 0 1 2 2z" fill="#00b39d"/><rect fill="#ffde55" height="52" rx="2" width="40" x="9" y="9"/><path d="m33 33h5v16h-5z" fill="#ff9811"/><path d="m23 33h5v16h-5z" fill="#ff9811"/><path d="m28 33h5v16h-5z" fill="#ee8700"/><path d="m43 27v6h-5-5-5-5v-6z" fill="#ff5023"/><path d="m15 33h8v16h-8z" fill="#e6e7e8"/><path d="m38 33h5v16h-5z" fill="#ee8700"/><path d="m15 27h8v6h-8z" fill="#ff6243"/><path d="m43 9v9l-2-3-2 3v-9z" fill="#ff5023"/><path d="m53 2h-36a3 3 0 0 0 -3 3v3h-3a3 3 0 0 0 -3 3v48a3 3 0 0 0 3 3h36a3 3 0 0 0 3-3v-3h3a3 3 0 0 0 3-3v-48a3 3 0 0 0 -3-3zm-5 57a1 1 0 0 1 -1 1h-36a1 1 0 0 1 -1-1v-48a1 1 0 0 1 1-1h27v8a1 1 0 0 0 1.832.555l1.168-1.755 1.168 1.752a1 1 0 0 0 1.832-.552v-8h3a1 1 0 0 1 1 1zm-8-49h2v4.7l-.168-.252a1 1 0 0 0 -1.664 0l-.168.252zm14 43a1 1 0 0 1 -1 1h-3v-43a3 3 0 0 0 -3-3h-31v-3a1 1 0 0 1 1-1h36a1 1 0 0 1 1 1z"/><path d="m43 26h-28a1 1 0 0 0 -1 1v22a1 1 0 0 0 1 1h28a1 1 0 0 0 1-1v-22a1 1 0 0 0 -1-1zm-1 6h-18v-4h18zm-13 2h3v14h-3zm-2 14h-3v-14h3zm7-14h3v14h-3zm-12-6v4h-6v-4zm-6 6h6v14h-6zm23 14v-14h3v14z"/><path d="m14 18h8v2h-8z"/><path d="m14 14h2v2h-2z"/><path d="m18 14h4v2h-4z"/><path d="m25 22h8v2h-8z"/><path d="m42.1 53.36a2.86 2.86 0 0 0 -4.869 0c-.4.485-.562.641-.9.641s-.495-.156-.9-.64a3.049 3.049 0 0 0 -2.431-1.361v2c.338 0 .5.156.9.641a2.861 2.861 0 0 0 4.871 0c.4-.484.562-.64.9-.64.321 0 .471.128.9.64a3.044 3.044 0 0 0 2.429 1.359v-2c-.321 0-.471-.128-.9-.64z"/></svg>